<?xml version="1.0" encoding="UTF-8" standalone="no"?>
<svg xmlns="http://www.w3.org/2000/svg"
     viewBox="0 0 788.32269 311.73599"
     height="311.73599"
     width="788.32269"
     version="1.1">
    <defs
            id="defs6"><clipPath
       id="clipPath18"
       clipPathUnits="userSpaceOnUse"><path
         id="path16"
         d="M 0,233.802 H 591.242 V 0 H 0 Z" /></clipPath></defs>
    <g
            transform="matrix(1.3333333,0,0,-1.3333333,0,311.736)"
            id="g10"><g
       id="g12"><g
         clip-path="url(#clipPath18)"
         id="g14"><g
           transform="translate(152.2143,95.3311)"
           id="g20"><path
             id="path22"
             style="fill:#c89750;fill-opacity:1;fill-rule:nonzero;stroke:none"
             d="m 0,0 c -4.362,2.799 -7.797,6.639 -10.3,11.52 -2.506,4.878 -3.757,10.399 -3.757,16.56 0,6.239 1.273,11.76 3.818,16.56 2.544,4.799 5.977,8.58 10.3,11.339 4.314,2.756 9.134,4.135 14.456,4.14 h -0.013 c -5.331,0 -10.16,-1.38 -14.481,-4.14 -4.322,-2.759 -7.755,-6.54 -10.299,-11.339 -2.545,-4.801 -3.818,-10.321 -3.818,-16.561 0,-6.161 1.251,-11.681 3.756,-16.559 2.504,-4.881 5.939,-8.721 10.301,-11.521 1.294,-0.831 2.641,-1.523 4.026,-2.107 v 0.015 C 2.616,-1.512 1.283,-0.824 0,0" /></g><g
            transform="translate(188.6889,150.0509)"
            id="g24"><path
             id="path26"
             style="fill:#c89750;fill-opacity:1;fill-rule:nonzero;stroke:none"
             d="M 0,0 C 0,1.119 0.383,2.079 1.151,2.88 1.915,3.674 2.899,4.073 4.101,4.078 4.094,4.078 4.089,4.079 4.083,4.079 2.871,4.079 1.881,3.679 1.114,2.88 0.346,2.079 -0.037,1.119 -0.037,0 V -6.288 C -0.023,-6.31 -0.013,-6.333 0,-6.355 Z" /></g><g
            transform="translate(188.6889,96.4112)"
            id="g28"><path
             id="path30"
             style="fill:#c89750;fill-opacity:1;fill-rule:nonzero;stroke:none"
             d="M 0,0 V 6.838 C -0.012,6.817 -0.025,6.797 -0.037,6.775 v -6.776 c 0,-1.121 0.383,-2.081 1.151,-2.88 0.767,-0.801 1.757,-1.2 2.969,-1.2 0.007,0 0.013,0.002 0.02,0.002 C 2.9,-4.074 1.915,-3.677 1.151,-2.88 0.383,-2.082 0,-1.121 0,0" /></g><g
            transform="translate(141.975,139.9708)"
            id="g32"><path
             id="path34"
             style="fill:#c89750;fill-opacity:1;fill-rule:nonzero;stroke:none"
             d="m 0,0 c -2.545,-4.8 -3.817,-10.32 -3.817,-16.56 0,-6.161 1.251,-11.681 3.756,-16.56 2.503,-4.881 5.938,-8.721 10.3,-11.52 1.283,-0.824 2.616,-1.511 3.99,-2.092 v 8.96 c -3.05,2.135 -5.455,5 -7.201,8.612 -1.818,3.76 -2.726,7.96 -2.726,12.6 0,4.719 0.927,8.919 2.787,12.6 1.857,3.679 4.402,6.559 7.634,8.64 3.226,2.077 6.898,3.117 11.012,3.119 0.005,0 0.01,10e-4 0.015,10e-4 4.2,0 7.917,-1.061 11.148,-3.18 3.231,-2.121 5.756,-5.04 7.575,-8.76 1.817,-3.72 2.726,-7.86 2.726,-12.42 0,-4.64 -0.909,-8.84 -2.726,-12.6 -1.819,-3.761 -4.344,-6.72 -7.575,-8.88 -3.231,-2.16 -6.948,-3.24 -11.148,-3.24 h -0.022 c -1.122,10e-4 -2.207,0.085 -3.259,0.24 v -7.691 c 0.795,-0.065 1.596,-0.108 2.415,-0.109 h 0.018 c 3.393,0 6.543,0.6 9.452,1.8 2.909,1.2 5.453,2.76 7.634,4.68 1.963,1.727 3.511,3.59 4.689,5.576 0.011,0.021 0.025,0.042 0.037,0.062 v -6.838 c 0,-1.121 0.383,-2.082 1.151,-2.879 0.764,-0.797 1.749,-1.195 2.951,-1.2 0.006,0 0.012,-10e-4 0.018,-10e-4 1.131,0 2.101,0.4 2.909,1.201 0.806,0.797 1.211,1.758 1.211,2.879 v 53.64 c 0,1.119 -0.384,2.079 -1.15,2.88 -0.77,0.799 -1.758,1.2 -2.97,1.2 -0.007,0 -0.013,-0.002 -0.02,-0.002 -1.201,-0.005 -2.185,-0.404 -2.949,-1.198 -0.768,-0.801 -1.151,-1.761 -1.151,-2.88 V 3.725 C 46.701,3.747 46.69,3.771 46.677,3.792 45.54,5.641 44.124,7.339 42.412,8.88 c -2.223,1.999 -4.847,3.6 -7.876,4.8 -3.03,1.2 -6.283,1.8 -9.755,1.8 -0.008,0 -0.016,-0.001 -0.025,-0.001 C 19.435,15.475 14.614,14.096 10.3,11.34 5.978,8.58 2.544,4.8 0,0" /></g><g
            transform="translate(249.2406,151.9708)"
            id="g36"><path
             id="path38"
             style="fill:#c89750;fill-opacity:1;fill-rule:nonzero;stroke:none"
             d="m 0,0 c 2.261,-1.2 4.321,-2.841 6.181,-4.92 0.726,-0.721 1.109,-1.601 1.15,-2.641 0.04,-1.04 -0.424,-2 -1.394,-2.879 -0.717,-0.553 -1.554,-0.791 -2.506,-0.72 h 10e-4 c 0.968,-0.08 1.817,0.159 2.545,0.721 0.968,0.878 1.432,1.838 1.393,2.879 -0.042,1.039 -0.425,1.92 -1.151,2.64 -1.86,2.079 -3.92,3.72 -6.181,4.92 -2.263,1.2 -4.586,2.079 -6.968,2.64 -2.383,0.559 -4.665,0.84 -6.846,0.84 -0.008,0 -0.017,-10e-4 -0.026,-10e-4 2.178,0 4.455,-0.282 6.834,-0.839 C -4.586,2.079 -2.263,1.199 0,0" /></g><g
            transform="translate(222.2787,124.3721)"
            id="g40"><path
             id="path42"
             style="fill:#c89750;fill-opacity:1;fill-rule:nonzero;stroke:none"
             d="M 0,0 C -0.016,0.009 -0.031,0.018 -0.047,0.027 -0.031,0.018 -0.016,0.01 0,0" /></g><g
            transform="translate(217.976,106.9708)"
            id="g44"><path
             id="path46"
             style="fill:#c89750;fill-opacity:1;fill-rule:nonzero;stroke:none"
             d="m 0,0 c 2.182,-2.721 4.787,-4.901 7.816,-6.54 0.108,-0.059 0.222,-0.108 0.331,-0.164 v 0.018 C 8.052,-6.636 7.95,-6.592 7.854,-6.54 4.825,-4.901 2.22,-2.721 0.039,0 -0.77,0.88 -1.658,1.359 -2.627,1.44 -2.829,1.456 -3.023,1.45 -3.215,1.439 c 0.18,0.009 0.361,0.016 0.55,0 C -1.696,1.359 -0.808,0.879 0,0" /></g><g
            transform="translate(234.3637,98.0655)"
            id="g48"><path
             id="path50"
             style="fill:#c89750;fill-opacity:1;fill-rule:nonzero;stroke:none"
             d="M 0,0 C 0.74,-0.057 1.494,-0.095 2.274,-0.095 H 2.285 C 1.501,-0.094 0.744,-0.056 0,0.002 Z" /></g><g
            transform="translate(308.4565,92.3184)"
            id="g52"><path
             id="path54"
             style="fill:#c89750;fill-opacity:1;fill-rule:nonzero;stroke:none"
             d="M 0,0 C -0.42,-0.118 -0.846,-0.224 -1.273,-0.325 -0.846,-0.225 -0.42,-0.118 0,0" /></g><g
            transform="translate(289.7016,92.6348)"
            id="g56"><path
             id="path58"
             style="fill:#c89750;fill-opacity:1;fill-rule:nonzero;stroke:none"
             d="M 0,0 C -0.144,0.046 -0.29,0.086 -0.433,0.134 -0.29,0.085 -0.144,0.046 0,0" /></g><g
            transform="translate(312.6752,93.8702)"
            id="g60"><path
             id="path62"
             style="fill:#c89750;fill-opacity:1;fill-rule:nonzero;stroke:none"
             d="M 0,0 C -1.344,-0.617 -2.733,-1.129 -4.172,-1.537 -2.733,-1.131 -1.344,-0.616 0,0" /></g><g
            transform="translate(306.7553,91.8975)"
            id="g64"><path
             id="path66"
             style="fill:#c89750;fill-opacity:1;fill-rule:nonzero;stroke:none"
             d="M 0,0 C -0.409,-0.09 -0.819,-0.176 -1.234,-0.25 -0.819,-0.177 -0.409,-0.09 0,0" /></g><g
            transform="translate(385.0805,140.8106)"
            id="g68"><path
             id="path70"
             style="fill:#c89750;fill-opacity:1;fill-rule:nonzero;stroke:none"
             d="m 0,0 13.698,-32.724 c 0.018,-0.006 0.033,-0.015 0.05,-0.022 L 0.04,0 C -0.284,0.88 -0.748,1.54 -1.354,1.98 -1.96,2.419 -2.747,2.641 -3.717,2.641 -3.724,2.641 -3.73,2.639 -3.738,2.639 -2.777,2.636 -1.996,2.416 -1.394,1.979 -0.788,1.539 -0.324,0.879 0,0" /></g><g
            transform="translate(347.9995,152.5704)"
            id="g72"><path
             id="path74"
             style="fill:#c89750;fill-opacity:1;fill-rule:nonzero;stroke:none"
             d="M 0,0 15.706,-46.324 15.728,-46.27 0.04,0.001 C -0.284,0.799 -0.789,1.42 -1.475,1.86 -2.162,2.299 -2.91,2.521 -3.717,2.521 -3.724,2.521 -3.729,2.519 -3.736,2.519 -2.938,2.515 -2.196,2.295 -1.515,1.86 -0.829,1.419 -0.324,0.799 0,0" /></g><g
            transform="translate(418.808,155.0909)"
            id="g76"><path
             id="path78"
             style="fill:#c89750;fill-opacity:1;fill-rule:nonzero;stroke:none"
             d="m 0,0 c -0.009,0 -0.018,-0.002 -0.026,-0.002 1.043,-0.003 1.989,-0.361 2.834,-1.078 0.848,-0.721 1.272,-1.722 1.272,-3 0,-0.24 -0.042,-0.522 -0.121,-0.841 -0.081,-0.32 -0.163,-0.6 -0.242,-0.84 l -15.845,-46.152 c 0.011,-0.01 0.02,-0.021 0.03,-0.03 L 3.757,-5.76 c 0.079,0.24 0.161,0.52 0.242,0.84 0.08,0.318 0.121,0.6 0.121,0.84 0,1.279 -0.424,2.28 -1.272,3 C 2,-0.36 1.049,0 0,0" /></g><g
            transform="translate(402.1059,92.9307)"
            id="g80"><path
             id="path82"
             style="fill:#c89750;fill-opacity:1;fill-rule:nonzero;stroke:none"
             d="m 0,0 c -0.576,-0.359 -1.185,-0.561 -1.826,-0.606 0.657,0.04 1.279,0.239 1.866,0.606 0.767,0.48 1.352,1.159 1.757,2.04 l 0.465,1.353 c -0.01,0.01 -0.02,0.022 -0.03,0.032 L 1.757,2.04 C 1.352,1.158 0.767,0.479 0,0" /></g><g
            transform="translate(444.7006,150.8907)"
            id="g84"><path
             id="path86"
             style="fill:#c89750;fill-opacity:1;fill-rule:nonzero;stroke:none"
             d="m 0,0 v -35.16 c 0,-3.237 0.436,-6.015 1.282,-8.358 0.012,0.006 0.024,0.011 0.035,0.017 -0.842,2.34 -1.277,5.111 -1.277,8.341 L 0.04,0 c 0,1.119 -0.385,2.079 -1.151,2.88 -0.769,0.799 -1.757,1.2 -2.969,1.2 -0.006,0 -0.012,-0.002 -0.019,-0.002 C -2.897,4.073 -1.915,3.674 -1.151,2.88 -0.385,2.079 0,1.119 0,0" /></g><g
            transform="translate(64.643,106.9864)"
            id="g88"><path
             id="path90"
             style="fill:#ffffff;fill-opacity:1;fill-rule:nonzero;stroke:none"
             d="m 0,0 c -2.315,-1.061 -4.439,-2.378 -6.352,-3.99 -1.843,-1.557 -3.366,-3.28 -4.604,-5.15 v 6.23 c 0,1.2 -0.385,2.199 -1.151,3 -0.769,0.799 -1.757,1.2 -2.969,1.2 -1.212,0 -2.202,-0.401 -2.969,-1.2 -0.769,-0.801 -1.151,-1.8 -1.151,-3 v -53.16 c 0,-1.121 0.382,-2.081 1.151,-2.88 0.767,-0.801 1.757,-1.2 2.969,-1.2 1.13,0 2.099,0.399 2.908,1.2 0.807,0.799 1.212,1.759 1.212,2.88 v 33.6 c 0,3.119 0.867,5.958 2.605,8.52 1.737,2.559 4.018,4.62 6.847,6.179 1.665,0.919 3.417,1.56 5.25,1.938 -0.471,0.26 -0.923,0.565 -1.349,0.927 C 0.853,-3.597 0.028,-1.901 0,0" /></g><g
            transform="translate(132.6684,102.0704)"
            id="g92"><path
             id="path94"
             style="fill:#ffffff;fill-opacity:1;fill-rule:nonzero;stroke:none"
             d="m 0,0 c -0.655,-0.698 -1.46,-1.211 -2.415,-1.512 -0.814,-0.257 -1.643,-0.386 -2.466,-0.386 -0.355,0 -0.716,0.024 -1.071,0.072 -1.133,0.152 -2.183,0.493 -3.121,1.011 l -0.056,0.031 c -1.385,0.823 -2.786,2.023 -4.164,3.565 -1.005,1.12 -1.849,2.53 -2.559,4.251 -0.162,0.002 -0.316,0.014 -0.48,0.014 -3.231,0 -6.422,-0.66 -9.573,-1.981 -3.151,-1.319 -5.919,-3.02 -8.301,-5.099 -2.193,-1.916 -3.815,-3.967 -4.879,-6.152 -1.329,3.892 -3.451,6.969 -6.391,9.211 -2.401,1.832 -5.201,3.023 -8.377,3.602 V 5.016 c 0,-1.836 -0.565,-3.44 -1.681,-4.769 -0.352,-0.417 -0.748,-0.768 -1.178,-1.065 1.98,-0.36 3.648,-1.036 4.996,-2.036 2.1,-1.56 3.614,-3.621 4.544,-6.18 0.928,-2.562 1.394,-5.401 1.394,-8.52 v -33.6 c 0,-1.121 0.382,-2.081 1.151,-2.88 0.767,-0.801 1.757,-1.2 2.969,-1.2 1.212,0 2.2,0.399 2.969,1.2 0.766,0.799 1.151,1.759 1.151,2.88 v 33.24 c 0,3.198 0.888,6.12 2.666,8.76 1.775,2.64 4.12,4.74 7.028,6.3 2.908,1.56 6.059,2.34 9.452,2.34 3.635,0 6.543,-0.78 8.725,-2.34 2.182,-1.56 3.775,-3.66 4.786,-6.3 1.01,-2.64 1.516,-5.562 1.516,-8.76 v -33.24 c 0,-1.121 0.382,-2.081 1.15,-2.88 0.768,-0.801 1.758,-1.2 2.97,-1.2 1.211,0 2.2,0.399 2.969,1.2 0.766,0.799 1.151,1.759 1.151,2.88 v 33.48 c 0,4.639 -0.688,8.82 -2.061,12.54 C 2.107,-3.221 1.167,-1.512 0,0" /></g><g
            transform="translate(202.7367,108.2764)"
            id="g96"><path
             id="path98"
             style="fill:#ffffff;fill-opacity:1;fill-rule:nonzero;stroke:none"
             d="m 0,0 c -1.212,0 -2.202,-0.401 -2.97,-1.2 -0.768,-0.801 -1.15,-1.8 -1.15,-3 v -33.361 c 0,-5.68 -1.496,-9.96 -4.484,-12.839 -2.99,-2.88 -7.231,-4.32 -12.724,-4.32 -5.332,0 -9.493,1.44 -12.482,4.32 -2.989,2.879 -4.483,7.159 -4.483,12.839 v 20.52 0.004 7.691 5.146 c 0,1.2 -0.385,2.199 -1.151,3 -0.769,0.799 -1.757,1.2 -2.969,1.2 -1.212,0 -2.202,-0.401 -2.969,-1.2 -0.769,-0.801 -1.151,-1.8 -1.151,-3 v -1.878 -8.96 -0.016 -22.507 c 0,-8 2.241,-14.12 6.725,-18.359 4.484,-4.241 10.643,-6.36 18.48,-6.36 7.916,0 14.137,2.119 18.662,6.36 4.523,4.239 6.786,10.359 6.786,18.359 V -4.2 c 0,1.2 -0.385,2.199 -1.151,3 C 2.199,-0.401 1.211,0 0,0" /></g><g
            transform="translate(226.1235,50.9161)"
            id="g100"><path
             id="path102"
             style="fill:#ffffff;fill-opacity:1;fill-rule:nonzero;stroke:none"
             d="m 0,0 c 0,-1.121 0.403,-2.081 1.212,-2.88 0.807,-0.801 1.776,-1.2 2.908,-1.2 1.131,0 2.1,0.399 2.908,1.2 C 7.835,-2.081 8.24,-1.121 8.24,0 V 40.251 C 5.437,40.375 2.689,40.838 0,41.641 Z" /></g><g
            transform="translate(234.3637,98.0655)"
            id="g104"><path
             id="path106"
             style="fill:#ffffff;fill-opacity:1;fill-rule:nonzero;stroke:none"
             d="m 0,0 v 0.002 21.847 7.947 3.695 c 0,1.119 -0.363,2.079 -1.091,2.88 -0.726,0.799 -1.696,1.199 -2.908,1.199 -1.132,0 -2.12,-0.4 -2.969,-1.199 C -7.815,35.57 -8.24,34.61 -8.24,33.491 V 33.258 24.455 2.22 2.201 C -5.849,0.969 -3.102,0.236 0,0" /></g><g
            transform="translate(247.3901,107.0762)"
            id="g108"><path
             id="path110"
             style="fill:#ffffff;fill-opacity:1;fill-rule:nonzero;stroke:none"
             d="m 0,0 c -0.769,-0.72 -1.151,-1.641 -1.151,-2.76 0,-1.041 0.382,-1.94 1.151,-2.7 0.046,-0.046 0.098,-0.077 0.145,-0.119 0.271,0.236 0.545,0.471 0.796,0.733 1.413,1.48 2.122,3.42 2.122,5.821 0,0.036 -0.004,0.069 -0.004,0.105 H 2.727 C 1.676,1.08 0.768,0.72 0,0" /></g><g
            transform="translate(281.1996,101.5567)"
            id="g112"><path
             id="path114"
             style="fill:#ffffff;fill-opacity:1;fill-rule:nonzero;stroke:none"
             d="M 0,0 C 0.767,0.72 1.151,1.639 1.151,2.76 1.151,3.798 0.767,4.698 0,5.46 -0.769,6.219 -1.678,6.6 -2.727,6.6 h -6.584 -5.17 v 12.599 c 0,1.12 -0.364,2.08 -1.09,2.88 -0.728,0.799 -1.698,1.2 -2.909,1.2 -1.211,0 -2.223,-0.401 -3.03,-1.2 -0.808,-0.8 -1.212,-1.76 -1.212,-2.88 V 6.6 h -0.361 -0.039 c -0.04,-2.887 -0.754,-5.446 -2.136,-7.68 h 0.038 2.498 v -39.481 c 0,-3.68 0.525,-6.479 1.576,-8.4 1.049,-1.92 2.363,-3.3 3.938,-4.14 1.576,-0.839 3.13,-1.32 4.666,-1.439 1.533,-0.12 2.745,-0.181 3.635,-0.181 1.857,0 3.533,0.42 5.029,1.26 1.494,0.841 2.242,1.899 2.242,3.181 0,0.96 -0.303,1.779 -0.909,2.46 -0.605,0.678 -1.272,1.019 -1.999,1.019 -0.727,0 -1.375,-0.12 -1.939,-0.359 -0.567,-0.24 -1.212,-0.361 -1.939,-0.361 -0.891,0 -1.818,0.16 -2.787,0.481 -0.97,0.318 -1.758,1.019 -2.363,2.1 -0.606,1.08 -0.909,2.659 -0.909,4.74 v 39.12 h 10.533 1.221 c 1.049,0 1.958,0.359 2.727,1.08" /></g><g
            transform="translate(299.558,128.0762)"
            id="g116"><path
             id="path118"
             style="fill:#ffffff;fill-opacity:1;fill-rule:nonzero;stroke:none"
             d="m 0,0 c -1.696,0 -3.029,-0.381 -3.998,-1.14 -0.97,-0.761 -1.454,-1.901 -1.454,-3.42 V -6 c 0,-1.521 0.442,-2.66 1.333,-3.42 0.888,-0.762 2.221,-1.14 3.998,-1.14 1.776,0 3.13,0.378 4.059,1.14 0.928,0.76 1.394,1.899 1.394,3.42 v 1.44 c 0,1.519 -0.444,2.659 -1.333,3.42 C 3.109,-0.381 1.776,0 0,0" /></g><g
            transform="translate(303.6782,105.3966)"
            id="g120"><path
             id="path122"
             style="fill:#ffffff;fill-opacity:1;fill-rule:nonzero;stroke:none"
             d="m 0,0 c 0,1.119 -0.384,2.079 -1.15,2.88 -0.77,0.799 -1.758,1.2 -2.97,1.2 -1.132,0 -2.102,-0.401 -2.908,-1.2 C -7.837,2.079 -8.239,1.119 -8.239,0 v -6.344 -7.675 -40.461 c 0,-1.122 0.382,-2.082 1.15,-2.88 0.768,-0.801 1.758,-1.201 2.969,-1.201 1.212,0 2.2,0.4 2.97,1.201 0.766,0.798 1.15,1.758 1.15,2.88 l 0,40.455 v 7.669 z" /></g><g
            transform="translate(347.06,108.1563)"
            id="g124"><path
             id="path126"
             style="fill:#ffffff;fill-opacity:1;fill-rule:nonzero;stroke:none"
             d="m 0,0 h -11.755 v 12.6 c 0,1.12 -0.363,2.08 -1.09,2.879 -0.727,0.799 -1.697,1.201 -2.909,1.201 -0.306,0 -0.6,-0.027 -0.88,-0.078 -0.829,-0.152 -1.547,-0.526 -2.149,-1.123 -0.809,-0.799 -1.212,-1.759 -1.212,-2.879 V 0 h -8.361 c -0.36,0 -0.697,-0.059 -1.023,-0.143 -0.627,-0.162 -1.199,-0.463 -1.704,-0.937 -0.67,-0.628 -1.028,-1.417 -1.114,-2.349 -0.013,-0.136 -0.037,-0.267 -0.037,-0.411 0,-1.041 0.382,-1.94 1.151,-2.7 0.768,-0.762 1.676,-1.14 2.727,-1.14 h 3.177 5.184 v -39.48 c 0,-3.681 0.524,-6.48 1.576,-8.401 1.049,-1.919 2.362,-3.299 3.938,-4.139 1.576,-0.84 3.129,-1.321 4.666,-1.44 1.533,-0.12 2.745,-0.18 3.634,-0.18 1.858,0 3.534,0.42 5.03,1.259 1.494,0.841 2.242,1.9 2.242,3.181 0,0.96 -0.304,1.779 -0.909,2.46 -0.606,0.679 -1.273,1.02 -1.999,1.02 -0.728,0 -1.375,-0.121 -1.94,-0.36 -0.566,-0.24 -1.212,-0.36 -1.938,-0.36 -0.891,0 -1.819,0.159 -2.787,0.48 -0.97,0.319 -1.758,1.02 -2.364,2.1 -0.605,1.08 -0.909,2.659 -0.909,4.74 V -7.68 H 0 c 1.049,0 1.958,0.36 2.727,1.08 0.766,0.72 1.151,1.639 1.151,2.76 0,1.038 -0.385,1.939 -1.151,2.7 C 1.958,-0.381 1.049,0 0,0" /></g><g
            transform="translate(399.3686,106.6798)"
            id="g128"><path
             id="path130"
             style="fill:#ffffff;fill-opacity:1;fill-rule:nonzero;stroke:none"
             d="M 0,0 0.337,0.996 C 0.044,1.125 -0.239,1.263 -0.54,1.385 -0.557,1.392 -0.572,1.4 -0.59,1.407 Z" /></g><g
            transform="translate(404.3383,96.3555)"
            id="g132"><path
             id="path134"
             style="fill:#ffffff;fill-opacity:1;fill-rule:nonzero;stroke:none"
             d="m 0,0 c 0.01,-0.01 0.02,-0.021 0.029,-0.032 1.668,-1.69 3.067,-3.684 4.192,-5.988 1.817,-3.719 2.726,-7.859 2.726,-12.419 0,-4.641 -0.909,-8.841 -2.726,-12.6 -1.819,-3.762 -4.344,-6.721 -7.575,-8.88 -3.231,-2.16 -6.948,-3.24 -11.148,-3.24 -4.201,0 -7.918,1.08 -11.148,3.24 -3.233,2.159 -5.756,5.118 -7.574,8.88 -1.818,3.759 -2.726,7.959 -2.726,12.6 0,4.719 0.928,8.919 2.787,12.6 1.857,3.679 4.402,6.559 7.634,8.64 3.23,2.079 6.907,3.12 11.027,3.12 1.093,0 2.15,-0.076 3.178,-0.22 l -3.298,7.862 c -0.284,0.008 -0.561,0.038 -0.849,0.038 -5.332,0 -10.16,-1.38 -14.481,-4.14 -1.509,-0.964 -2.903,-2.061 -4.196,-3.274 -2.409,-2.259 -4.448,-4.943 -6.104,-8.066 -0.371,-0.701 -0.707,-1.421 -1.024,-2.152 -1.857,-4.28 -2.793,-9.079 -2.793,-14.408 0,-6.162 1.251,-11.681 3.756,-16.56 2.503,-4.881 5.938,-8.721 10.3,-11.521 4.363,-2.8 9.249,-4.2 14.663,-4.2 3.393,0 6.543,0.601 9.452,1.801 2.909,1.199 5.453,2.76 7.634,4.68 1.984,1.745 3.544,3.628 4.726,5.638 v -6.838 c 0,-1.122 0.383,-2.082 1.151,-2.88 0.768,-0.801 1.758,-1.201 2.969,-1.201 1.131,0 2.101,0.4 2.909,1.201 0.806,0.798 1.211,1.758 1.211,2.88 v 53.64 c 0,1.119 -0.384,2.079 -1.15,2.88 -0.77,0.799 -1.758,1.199 -2.97,1.199 -1.211,0 -2.201,-0.4 -2.969,-1.199 C 6.845,10.28 6.462,9.32 6.462,8.201 V 1.845 C 5.369,3.639 4.005,5.287 2.372,6.792 2.361,6.802 2.353,6.812 2.342,6.822 Z" /></g><g
            transform="translate(448.3959,103.0704)"
            id="g136"><path
             id="path138"
             style="fill:#ffffff;fill-opacity:1;fill-rule:nonzero;stroke:none"
             d="m 0,0 c 0.509,-0.603 1.094,-1.128 1.725,-1.606 0.008,0.003 0.018,0.006 0.027,0.01 0.272,0.11 0.537,0.229 0.823,0.322 1.98,0.639 4.06,0.96 6.241,0.96 3.07,0 5.917,-0.54 8.543,-1.621 0.675,-0.277 1.322,-0.59 1.946,-0.933 1.803,-0.993 3.399,-2.261 4.78,-3.806 0.179,-0.203 0.385,-0.368 0.604,-0.514 0.474,-0.317 1.036,-0.513 1.699,-0.566 0.968,-0.081 1.817,0.159 2.545,0.72 0.968,0.88 1.432,1.84 1.393,2.88 -0.028,0.7 -0.224,1.322 -0.563,1.879 -0.164,0.268 -0.351,0.526 -0.588,0.761 -1.081,1.209 -2.239,2.252 -3.457,3.164 -0.875,0.657 -1.778,1.254 -2.724,1.756 -2.263,1.199 -4.586,2.079 -6.968,2.64 -2.383,0.558 -4.665,0.84 -6.846,0.84 -3.959,0 -7.574,-0.74 -10.846,-2.22 C -1.909,4.556 -2.142,4.436 -2.378,4.319 -2.39,4.313 -2.401,4.309 -2.413,4.303 -1.815,2.65 -1.02,1.207 0,0" /></g><g
            transform="translate(474.0561,75.7559)"
            id="g140"><path
             id="path142"
             style="fill:#ffffff;fill-opacity:1;fill-rule:nonzero;stroke:none"
             d="m 0,0 c -1.478,1.08 -3.127,1.99 -4.935,2.743 -0.466,0.195 -0.937,0.385 -1.426,0.558 -2.385,0.84 -4.868,1.578 -7.453,2.22 -2.99,0.798 -5.696,1.659 -8.12,2.58 -2.423,0.919 -4.362,2.079 -5.816,3.479 -1.454,1.399 -2.223,3.259 -2.303,5.58 0,0.846 0.088,1.629 0.254,2.356 -2.219,1.721 -3.96,3.88 -5.223,6.477 -0.019,-0.025 -0.041,-0.049 -0.059,-0.073 -1.899,-2.561 -2.848,-5.561 -2.848,-9 0,-2.96 0.606,-5.481 1.818,-7.56 1.162,-1.995 2.704,-3.667 4.607,-5.034 0.083,-0.059 0.155,-0.128 0.239,-0.185 2.019,-1.402 4.322,-2.541 6.908,-3.42 2.585,-0.882 5.251,-1.681 7.998,-2.401 2.585,-0.641 5.008,-1.4 7.271,-2.28 1.303,-0.508 2.448,-1.118 3.47,-1.811 0.752,-0.509 1.444,-1.058 2.044,-1.668 1.412,-1.441 2.12,-3.361 2.12,-5.76 0,-2.401 -0.708,-4.341 -2.12,-5.821 -1.415,-1.481 -3.172,-2.561 -5.272,-3.24 -2.101,-0.68 -4.241,-1.019 -6.423,-1.019 -4.201,0 -7.816,0.819 -10.845,2.46 -3.03,1.638 -5.635,3.819 -7.816,6.54 -0.808,0.879 -1.697,1.359 -2.666,1.439 -0.969,0.079 -1.818,-0.161 -2.545,-0.72 -1.05,-0.719 -1.596,-1.581 -1.635,-2.58 -0.042,-1.001 0.26,-2.021 0.908,-3.059 3.151,-3.921 6.805,-6.721 10.967,-8.401 4.16,-1.679 8.462,-2.52 12.906,-2.52 3.957,0 7.613,0.681 10.966,2.04 3.351,1.359 6.059,3.34 8.119,5.94 2.06,2.599 3.091,5.701 3.091,9.3 0,3.12 -0.567,5.7 -1.698,7.74 C 3.821,-3.905 3.019,-2.842 2.107,-1.881 1.462,-1.201 0.771,-0.564 0,0" /></g><g
            transform="translate(544.4614,54.0362)"
            id="g144"><path
             id="path146"
             style="fill:#ffffff;fill-opacity:1;fill-rule:nonzero;stroke:none"
             d="M 0,0 -25.574,27.177 -1.575,47.64 c 1.049,0.88 1.575,1.879 1.575,3 0,0.96 -0.385,1.879 -1.151,2.76 -0.769,0.879 -1.718,1.32 -2.848,1.32 -1.051,0 -2.021,-0.441 -2.908,-1.32 l -33.81,-29.324 v 53.445 c 0,1.119 -0.384,2.079 -1.151,2.879 -0.769,0.799 -1.757,1.2 -2.969,1.2 -1.132,0 -2.101,-0.401 -2.908,-1.2 -0.809,-0.8 -1.212,-1.76 -1.212,-2.879 V -3.12 c 0,-1.121 0.403,-2.081 1.212,-2.88 0.807,-0.801 1.776,-1.2 2.908,-1.2 1.212,0 2.2,0.399 2.969,1.2 0.767,0.799 1.151,1.759 1.151,2.88 v 17.386 l 8.705,7.421 26.075,-27.447 c 0.887,-0.96 1.896,-1.44 3.029,-1.44 0.806,0 1.715,0.36 2.726,1.08 1.009,0.72 1.515,1.72 1.515,3 0,1.2 -0.445,2.239 -1.333,3.12" /></g><g
            transform="translate(114.8989,154.1866)"
            id="g148"><path
             id="path150"
             style="fill:#c99650;fill-opacity:1;fill-rule:nonzero;stroke:none"
             d="m 0,0 c -1.136,-2.249 -2.612,-4.02 -4.39,-5.261 -1.754,-1.226 -3.563,-1.894 -5.528,-2.04 h -26.165 v 27.92 h 25.629 c 3.505,0 6.345,-1.174 8.681,-3.59 C 0.58,14.593 1.724,11.633 1.724,7.979 1.724,4.953 1.144,2.269 0,0 m 19.392,-46.04 c -0.504,1.663 -1.54,3.005 -3.08,3.986 -0.581,0.365 -1.014,0.861 -1.336,1.526 -0.39,0.804 -0.696,1.996 -0.91,3.541 -0.233,1.693 -0.43,4.01 -0.587,6.885 -0.093,3.653 -0.909,6.915 -2.424,9.699 -1.506,2.76 -3.486,5.075 -5.886,6.881 -0.159,0.12 -0.321,0.238 -0.484,0.353 1.31,0.836 2.544,1.806 3.692,2.902 2.441,2.332 4.386,5.11 5.78,8.256 1.401,3.166 2.11,6.608 2.11,10.231 0,4.901 -1.175,9.363 -3.492,13.261 -2.313,3.89 -5.478,6.979 -9.406,9.182 -3.92,2.201 -8.366,3.316 -13.217,3.316 h -33.446 c -1.913,0 -3.569,-0.679 -4.921,-2.019 -1.339,-1.325 -2.047,-3.02 -2.047,-4.9 v -74.161 c 0,-0.033 0.005,-0.065 0.006,-0.099 0.028,-1.902 0.853,-3.597 2.398,-4.906 0.425,-0.362 0.878,-0.667 1.348,-0.927 1.183,-0.652 2.502,-0.988 3.944,-0.988 1.377,0 2.602,0.376 3.624,1.086 0.429,0.298 0.826,0.649 1.177,1.066 1.117,1.329 1.682,2.932 1.682,4.768 v 1.612 25.549 h 23.569 c 1.596,0 3.18,-0.202 4.709,-0.597 1.434,-0.372 2.729,-0.985 3.847,-1.824 1.071,-0.805 1.973,-1.937 2.678,-3.365 0.707,-1.434 1.065,-3.256 1.065,-5.415 0,-4.797 0.403,-8.513 1.232,-11.358 0.271,-0.936 0.573,-1.79 0.901,-2.585 0.71,-1.722 1.554,-3.131 2.559,-4.251 1.377,-1.542 2.779,-2.742 4.164,-3.565 l 0.055,-0.032 c 0.939,-0.517 1.989,-0.858 3.121,-1.01 0.356,-0.048 0.716,-0.073 1.072,-0.073 0.823,0 1.652,0.13 2.465,0.387 0.956,0.301 1.76,0.814 2.416,1.512 0.259,0.275 0.5,0.574 0.709,0.91 1.135,1.609 1.451,3.393 0.913,5.166" /></g><g
            transform="translate(255.4213,147.0509)"
            id="g152"><path
             id="path154"
             style="fill:#c89750;fill-opacity:1;fill-rule:nonzero;stroke:none"
             d="m 0,0 c -1.859,2.079 -3.92,3.72 -6.181,4.92 -2.262,1.199 -4.586,2.079 -6.967,2.64 -2.379,0.557 -4.657,0.838 -6.834,0.839 h -0.013 c -3.959,0 -7.573,-0.74 -10.846,-2.219 -3.271,-1.482 -5.858,-3.501 -7.755,-6.061 -1.899,-2.56 -2.847,-5.56 -2.847,-9 0,-2.96 0.605,-5.48 1.817,-7.559 1.212,-2.081 2.827,-3.822 4.847,-5.22 0.507,-0.352 1.043,-0.676 1.59,-0.991 0.015,-0.01 0.031,-0.019 0.046,-0.028 0.205,-0.118 0.409,-0.239 0.618,-0.354 0,0.008 0,0.014 -0.001,0.021 1.017,-0.559 2.091,-1.068 3.228,-1.518 v 8.802 c -0.708,0.471 -1.365,0.966 -1.929,1.508 -1.454,1.399 -2.222,3.259 -2.302,5.58 0,2.4 0.667,4.32 2,5.76 1.333,1.44 2.987,2.479 4.967,3.12 1.973,0.637 4.045,0.956 6.218,0.959 3.064,-0.002 5.906,-0.541 8.529,-1.62 2.624,-1.079 4.866,-2.66 6.725,-4.739 0.565,-0.642 1.333,-1.002 2.303,-1.08 0.013,-10e-4 0.024,0.001 0.037,0 0.952,-0.072 1.789,0.167 2.507,0.719 0.97,0.88 1.433,1.84 1.393,2.88 C 1.109,-1.602 0.727,-0.721 0,0" /></g><g
            transform="translate(256.4282,116.1505)"
            id="g156"><path
             id="path158"
             style="fill:#c89750;fill-opacity:1;fill-rule:nonzero;stroke:none"
             d="m 0,0 c -1.132,2.04 -2.626,3.739 -4.483,5.101 -1.86,1.359 -3.98,2.46 -6.362,3.299 -2.385,0.84 -4.868,1.579 -7.453,2.22 -1.313,0.351 -2.562,0.716 -3.766,1.091 V 3.764 c 0.41,-0.113 0.808,-0.235 1.221,-0.343 0.203,-0.051 0.4,-0.107 0.601,-0.158 -10e-4,-0.004 -10e-4,-0.007 -0.002,-0.011 2.345,-0.606 4.56,-1.306 6.634,-2.112 2.26,-0.881 4.099,-2.04 5.513,-3.48 1.392,-1.418 2.096,-3.305 2.117,-5.654 0,-0.036 0.004,-0.069 0.004,-0.106 0,-2.4 -0.708,-4.34 -2.121,-5.82 -0.251,-0.263 -0.525,-0.497 -0.797,-0.733 -1.263,-1.103 -2.746,-1.949 -4.473,-2.507 -2.1,-0.679 -4.235,-1.018 -6.412,-1.02 h -0.011 c -0.78,0 -1.534,0.038 -2.274,0.095 -3.102,0.236 -5.849,0.969 -8.241,2.201 -0.109,0.056 -0.223,0.106 -0.331,0.164 -3.029,1.639 -5.635,3.82 -7.816,6.54 -0.808,0.879 -1.696,1.36 -2.665,1.44 -0.19,0.015 -0.37,0.009 -0.55,0 -0.742,-0.037 -1.41,-0.27 -1.995,-0.72 -1.051,-0.72 -1.597,-1.581 -1.636,-2.58 -0.042,-1.001 0.261,-2.022 0.908,-3.06 3.151,-3.921 6.806,-6.72 10.967,-8.4 1.03,-0.416 2.07,-0.78 3.118,-1.094 2.69,-0.802 5.437,-1.265 8.241,-1.389 0.513,-0.023 1.029,-0.038 1.546,-0.038 0.009,0 0.017,0.001 0.026,0.001 3.948,0.003 7.596,0.683 10.941,2.04 3.352,1.359 6.06,3.339 8.119,5.94 0.348,0.439 0.656,0.898 0.946,1.366 1.382,2.235 2.095,4.793 2.135,7.68 h 0.039 c 0.001,0.086 0.009,0.168 0.009,0.255 C 1.697,-4.619 1.131,-2.04 0,0" /></g><g
            transform="translate(326.4096,139.7911)"
            id="g160"><path
             id="path162"
             style="fill:#c89750;fill-opacity:1;fill-rule:nonzero;stroke:none"
             d="m 0,0 c -2.708,4.839 -6.383,8.658 -11.027,11.46 -4.647,2.799 -9.918,4.2 -15.815,4.2 -0.008,0 -0.015,-10e-4 -0.023,-10e-4 h -0.016 c -5.816,0 -11.068,-1.4 -15.753,-4.2 -4.686,-2.801 -8.403,-6.62 -11.148,-11.46 -2.748,-4.841 -4.12,-10.38 -4.12,-16.62 0,-4.753 0.825,-9.108 2.461,-13.075 0.011,0.004 0.024,0.004 0.036,0.008 0.272,-0.661 0.567,-1.309 0.884,-1.947 h 6.584 c 1.049,0 1.958,-0.381 2.727,-1.139 0.767,-0.762 1.151,-1.663 1.151,-2.701 0,-1.121 -0.384,-2.04 -1.151,-2.759 -0.769,-0.721 -1.678,-1.08 -2.727,-1.08 h -1.221 c 1.432,-1.503 3.009,-2.853 4.736,-4.039 -0.004,-0.006 -0.007,-0.014 -0.011,-0.021 0.584,-0.399 1.182,-0.783 1.799,-1.147 1.75,-1.031 3.584,-1.858 5.493,-2.501 0.143,-0.048 0.289,-0.088 0.433,-0.134 0.402,-0.129 0.804,-0.263 1.213,-0.376 -0.001,0.005 -0.001,0.009 -0.002,0.012 1.465,-0.404 2.973,-0.706 4.526,-0.893 v 7.675 c -2.668,0.47 -5.152,1.402 -7.443,2.818 -3.435,2.118 -6.161,5.02 -8.18,8.7 -2.02,3.679 -3.029,7.878 -3.029,12.6 0,4.8 1.009,9.039 3.029,12.72 2.019,3.678 4.745,6.579 8.18,8.7 3.429,2.116 7.281,3.176 11.557,3.179 4.352,-0.004 8.222,-1.065 11.61,-3.18 3.393,-2.12 6.077,-5.021 8.058,-8.699 1.979,-3.681 2.969,-7.92 2.969,-12.721 0,-4.429 -0.884,-8.394 -2.626,-11.905 0.014,0 0.027,-0.001 0.04,-0.001 -0.114,-0.231 -0.221,-0.466 -0.343,-0.693 -0.484,-0.899 -1.011,-1.751 -1.58,-2.557 0.327,0.084 0.664,0.142 1.023,0.142 h 8.361 v 12.6 c 0,1.12 0.404,2.08 1.212,2.88 0.603,0.596 1.321,0.97 2.15,1.122 C 3.804,-9.439 2.473,-4.426 0,0" /></g><g
            transform="translate(315.977,101.6163)"
            id="g164"><path
             id="path166"
             style="fill:#c89750;fill-opacity:1;fill-rule:nonzero;stroke:none"
             d="m 0,0 c -0.769,0.76 -1.151,1.659 -1.151,2.7 0,0.144 0.024,0.275 0.037,0.411 C -1.89,2.365 -2.716,1.674 -3.598,1.044 -3.603,1.05 -3.608,1.055 -3.613,1.061 -4.004,0.78 -4.403,0.511 -4.814,0.254 -6.727,-0.94 -8.799,-1.786 -11.019,-2.308 v -0.009 c -0.42,-0.098 -0.847,-0.185 -1.28,-0.259 v -7.669 c 0.093,0.012 0.183,0.029 0.276,0.041 -10e-4,-10e-4 -10e-4,-0.003 -10e-4,-0.005 0.418,0.054 0.829,0.12 1.24,0.188 0.109,0.019 0.22,0.033 0.328,0.052 0.415,0.074 0.825,0.16 1.234,0.25 0.143,0.031 0.285,0.063 0.428,0.096 0.428,0.102 0.854,0.207 1.273,0.325 l 0.047,0.015 c 1.439,0.408 2.828,0.92 4.172,1.537 0.009,0.004 0.019,0.009 0.028,0.013 0.913,0.42 1.811,0.871 2.679,1.387 2.436,1.448 4.597,3.188 6.499,5.206 H 2.727 C 1.676,-1.14 0.768,-0.762 0,0" /></g><g
            transform="translate(421.6157,154.0108)"
            id="g168"><path
             id="path170"
             style="fill:#c89750;fill-opacity:1;fill-rule:nonzero;stroke:none"
             d="m 0,0 c -0.845,0.717 -1.791,1.075 -2.834,1.078 -0.005,0 -0.009,10e-4 -0.014,10e-4 -2.02,0 -3.313,-0.84 -3.878,-2.519 l -15.184,-44.895 -0.337,-0.996 -0.59,1.407 -13.698,32.724 c -0.324,0.879 -0.788,1.539 -1.394,1.979 -0.602,0.437 -1.384,0.657 -2.344,0.659 -0.007,0 -0.013,10e-4 -0.019,10e-4 -1.859,0 -3.15,-0.88 -3.878,-2.639 l -13.719,-34.51 -0.021,-0.055 -15.706,46.325 c -0.324,0.798 -0.829,1.419 -1.515,1.86 -0.682,0.434 -1.423,0.654 -2.222,0.658 -0.006,0 -0.013,10e-4 -0.02,10e-4 -1.293,0 -2.323,-0.4 -3.09,-1.199 -0.768,-0.801 -1.151,-1.761 -1.151,-2.88 0,-0.562 0.121,-1.122 0.363,-1.681 l 19.025,-54.359 c 0.322,-0.879 0.885,-1.556 1.69,-2.035 0.003,0.007 0.007,0.013 0.01,0.021 0.013,-0.008 0.024,-0.018 0.037,-0.026 0.621,-0.369 1.266,-0.568 1.935,-0.607 0.318,0.732 0.654,1.452 1.025,2.153 1.656,3.123 3.695,5.806 6.103,8.066 l 10.761,28.272 8.766,-20.896 3.297,-7.862 2.973,-7.086 c 0.807,-1.681 2.018,-2.562 3.635,-2.641 0.223,-0.019 0.442,-0.021 0.658,-0.006 0.642,0.046 1.25,0.248 1.826,0.607 0.767,0.479 1.352,1.158 1.757,2.04 l 0.476,1.385 2.341,6.822 15.845,46.152 c 0.079,0.241 0.161,0.52 0.242,0.84 0.079,0.32 0.121,0.601 0.121,0.841 0,1.278 -0.423,2.279 -1.272,3" /></g><g
            transform="translate(485.8813,153.7706)"
            id="g172"><path
             id="path174"
             style="fill:#c89750;fill-opacity:1;fill-rule:nonzero;stroke:none"
             d="M 0,0 C -0.77,0.799 -1.758,1.2 -2.97,1.2 -2.976,1.2 -2.981,1.198 -2.988,1.198 -2.996,1.198 -3.002,1.2 -3.01,1.2 -4.222,1.2 -5.212,0.799 -5.979,0 -6.747,-0.801 -7.13,-1.761 -7.13,-2.88 v -35.16 c 0,-1.778 -0.307,-3.479 -0.9,-5.106 0.013,0 0.027,-10e-4 0.041,-10e-4 -0.422,-1.155 -0.984,-2.275 -1.705,-3.353 -0.618,-0.924 -1.325,-1.758 -2.074,-2.55 1.218,-0.912 2.376,-1.955 3.457,-3.164 0.238,-0.235 0.424,-0.493 0.588,-0.762 0.215,0.295 0.437,0.585 0.633,0.892 v -3.596 c 0,-1.775 -0.12,-3.45 -0.359,-5.026 -0.014,-10e-4 -0.028,-0.003 -0.041,-0.003 -0.399,-2.616 -1.126,-4.959 -2.185,-7.031 -0.746,-1.458 -1.633,-2.767 -2.659,-3.924 0.006,-0.002 0.013,-0.006 0.02,-0.008 -1.27,-1.428 -2.749,-2.631 -4.446,-3.599 1.808,-0.753 3.457,-1.664 4.935,-2.744 0.77,-0.564 1.462,-1.201 2.107,-1.881 2.803,2.052 5.14,4.657 6.991,7.836 2.584,4.44 3.877,9.942 3.877,16.5 V -2.88 C 1.15,-1.761 0.767,-0.801 0,0" /></g><g
            transform="translate(464.9682,71.796)"
            id="g176"><path
             id="path178"
             style="fill:#c89750;fill-opacity:1;fill-rule:nonzero;stroke:none"
             d="m 0,0 c -2.263,0.88 -4.687,1.639 -7.271,2.28 -2.748,0.72 -5.414,1.519 -7.999,2.401 -2.585,0.879 -4.888,2.018 -6.907,3.42 -0.084,0.057 -0.156,0.126 -0.239,0.185 -0.766,0.226 -1.53,0.177 -2.296,-0.171 -0.615,-0.279 -1.104,-0.749 -1.492,-1.368 -0.01,0.006 -0.02,0.012 -0.029,0.019 -0.228,-0.36 -0.429,-0.757 -0.579,-1.232 -0.405,-1.038 -0.344,-2.019 0.182,-2.939 0.525,-0.919 1.394,-1.66 2.606,-2.221 1.857,-1.119 4.259,-2.04 7.21,-2.76 2.948,-0.719 6.078,-1.08 9.391,-1.08 0.009,0 0.017,0.001 0.026,0.001 h 0.014 c 0.028,0 0.053,0.003 0.08,0.003 0.829,0.002 1.643,0.036 2.448,0.089 0.259,0.017 0.516,0.039 0.774,0.061 0.65,0.056 1.292,0.128 1.925,0.218 0.185,0.026 0.374,0.046 0.557,0.075 0.724,0.114 1.44,0.244 2.142,0.402 C 0.537,-2.613 0.53,-2.61 0.524,-2.606 1.526,-2.381 2.512,-2.124 3.47,-1.812 2.448,-1.118 1.303,-0.508 0,0" /></g><g
            transform="translate(439.0336,101.7491)"
            id="g180"><path
             id="path182"
             style="fill:#c89750;fill-opacity:1;fill-rule:nonzero;stroke:none"
             d="m 0,0 c 1.264,-2.598 3.005,-4.756 5.224,-6.478 0.546,-0.423 1.111,-0.83 1.715,-1.201 3.191,-1.959 7.168,-2.94 11.936,-2.94 0.006,0 0.013,10e-4 0.019,10e-4 h 0.021 c 3.231,0 6.281,0.54 9.149,1.62 2.184,0.822 4.177,1.868 5.988,3.131 -0.22,0.146 -0.426,0.311 -0.605,0.514 -1.381,1.545 -2.976,2.813 -4.78,3.806 -1.213,-0.521 -2.476,-0.914 -3.793,-1.164 -0.005,0.006 -0.01,0.011 -0.015,0.017 -1.218,-0.236 -2.479,-0.363 -3.789,-0.364 -0.005,0 -0.008,-0.001 -0.013,-0.001 -4.232,0 -7.545,0.935 -9.97,2.774 C 10.456,0.193 9.871,0.719 9.362,1.321 8.343,2.528 7.547,3.972 6.949,5.624 6.103,7.967 5.667,10.744 5.667,13.981 v 35.161 c 0,1.119 -0.385,2.079 -1.151,2.879 -0.764,0.794 -1.746,1.194 -2.948,1.199 -0.007,0 -0.013,0.002 -0.021,0.002 -1.212,0 -2.202,-0.402 -2.969,-1.201 -0.769,-0.8 -1.151,-1.76 -1.151,-2.879 V 12.541 C -2.573,7.9 -1.786,3.86 -0.211,0.421 -0.146,0.276 -0.069,0.142 0,0" /></g></g></g></g></svg>